<?xml version="1.0" encoding="UTF-8"?>
<svg width="14px" height="12px" viewBox="0 0 14 12" version="1.1" xmlns="http://www.w3.org/2000/svg" xmlns:xlink="http://www.w3.org/1999/xlink">
    <!-- Generator: Sketch 48.2 (47327) - http://www.bohemiancoding.com/sketch -->
    <title>管理员</title>
    <desc>Created with Sketch.</desc>
    <defs></defs>
    <g id="存储产品色板" stroke="none" stroke-width="1" fill="none" fill-rule="evenodd" transform="translate(-582.000000, -314.000000)">
        <g id="顶部导航icon" transform="translate(171.000000, 312.000000)" fill="#000000">
            <g id="管理员" transform="translate(411.000000, 1.000000)">
                <path d="M12.2467678,9.98978874 C11.4012182,9.62114923 10.146632,8.67142527 8.28888966,8.34515498 C8.7639846,7.84637752 9.12353803,7.06627564 9.49341596,6.1422091 C9.70779374,5.60670559 9.67101616,5.15017034 9.67101616,4.50013382 C9.67101616,4.02006414 9.76322986,3.24945224 9.64173547,2.82601398 C9.2319733,1.39487759 8.19667596,1 6.98364821,1 C5.7695973,1 4.73301638,1.39672841 4.32403552,2.8303507 C4.20356428,3.25250065 4.2959268,4.02126173 4.2959268,4.5002064 C4.2959268,5.15165825 4.25987472,5.60968141 4.47482919,6.14611033 C4.84753474,7.07491279 5.2018608,7.85388967 5.67513268,8.35054413 C3.83230974,8.68283865 2.58708067,9.62539523 1.74698171,9.99290973 C0.00850144437,10.7533058 0,11.5858657 0,11.5858657 L0,13 L14,12.9983669 L14,11.5858657 C14,11.5858657 13.9918706,10.7504752 12.2467678,9.98978874 Z"></path>
            </g>
        </g>
    </g>
</svg>