<?xml version="1.0" encoding="UTF-8"?>
<svg width="11px" height="14px" viewBox="0 0 11 14" version="1.1" xmlns="http://www.w3.org/2000/svg" xmlns:xlink="http://www.w3.org/1999/xlink">
    <!-- Generator: Sketch 48.2 (47327) - http://www.bohemiancoding.com/sketch -->
    <title>BBD警告</title>
    <desc>Created with Sketch.</desc>
    <defs>
        <path d="M10.3934286,9.09783591 L9.83085714,9.09783591 L9.83085714,5.70468619 L9.83085714,5.69769721 L9.83085714,5.68459287 C9.8302944,3.52936898 8.54070044,1.63752123 6.67464286,1.05439371 C6.55510323,0.439146948 6.06570981,3.78873358e-17 5.49960714,0 C4.93350448,-3.86450825e-17 4.44411106,0.439146948 4.32457143,1.05439371 C2.45930019,1.63862049 1.17040548,3.52991324 1.16914286,5.68459287 L1.16914286,9.09783591 L0.607357143,9.09783591 C0.446484357,9.09760407 0.292117681,9.16843831 0.178216093,9.2947559 C0.0643145049,9.42107348 0.000208249474,9.59252711 0,9.77139885 L0,9.82468982 C0,10.1986002 0.271857143,10.5 0.607357143,10.5 L10.3934286,10.5 C10.7285558,10.499518 11.0000003,10.1973124 11,9.82468982 L11,9.77139885 C10.9995665,9.39925904 10.7281221,9.0978356 10.3934286,9.09783591 Z M5.5,14 C6.56597922,13.9995345 7.4849951,13.0248207 7.7,11.6666667 L3.3,11.6666667 C3.5150049,13.0248207 4.43402078,13.9995345 5.5,14 Z" id="path-1"></path>
    </defs>
    <g id="存储产品色板" stroke="none" stroke-width="1" fill="none" fill-rule="evenodd" transform="translate(-301.000000, -313.000000)">
        <g id="顶部导航icon" transform="translate(171.000000, 312.000000)">
            <g id="消息提示" transform="translate(130.000000, 0.000000)">
                <g id="BBD警告" transform="translate(0.000000, 1.000000)">
                    <mask id="mask-2" fill="white">
                        <use xlink:href="#path-1"></use>
                    </mask>
                    <use id="Shape" fill="#000000" fill-rule="nonzero" xlink:href="#path-1"></use>
                </g>
            </g>
        </g>
    </g>
</svg>