<?xml version="1.0" standalone="no"?><!DOCTYPE svg PUBLIC "-//W3C//DTD SVG 1.1//EN" "http://www.w3.org/Graphics/SVG/1.1/DTD/svg11.dtd"><svg t="1524044307228" class="icon" style="" viewBox="0 0 1024 1024" version="1.1" xmlns="http://www.w3.org/2000/svg" p-id="1125" xmlns:xlink="http://www.w3.org/1999/xlink" width="16" height="16"><defs><style type="text/css"></style></defs><path d="M105.184 950.848l164.576 0 0-164.576-164.576 0 0 164.576zM306.304 950.848l182.848 0 0-164.576-182.848 0 0 164.576zM105.184 749.728l164.576 0 0-182.848-164.576 0 0 182.848zM306.304 749.728l182.848 0 0-182.848-182.848 0 0 182.848zM105.184 530.272l164.576 0 0-164.576-164.576 0 0 164.576zM525.76 950.848l182.848 0 0-164.576-182.848 0 0 164.576zM306.304 530.272l182.848 0 0-164.576-182.848 0 0 164.576zM745.184 950.848l164.576 0 0-164.576-164.576 0 0 164.576zM525.76 749.728l182.848 0 0-182.848-182.848 0 0 182.848zM324.608 256l0-164.576q0-7.424-5.44-12.864t-12.864-5.44l-36.576 0q-7.424 0-12.864 5.44t-5.44 12.864l0 164.576q0 7.424 5.44 12.864t12.864 5.44l36.576 0q7.424 0 12.864-5.44t5.44-12.864zM745.184 749.728l164.576 0 0-182.848-164.576 0 0 182.848zM525.76 530.272l182.848 0 0-164.576-182.848 0 0 164.576zM745.184 530.272l164.576 0 0-164.576-164.576 0 0 164.576zM763.456 256l0-164.576q0-7.424-5.44-12.864t-12.864-5.44l-36.576 0q-7.424 0-12.864 5.44t-5.44 12.864l0 164.576q0 7.424 5.44 12.864t12.864 5.44l36.576 0q7.424 0 12.864-5.44t5.44-12.864zM982.88 219.424l0 731.424q0 29.728-21.728 51.424t-51.424 21.728l-804.576 0q-29.728 0-51.424-21.728t-21.728-51.424l0-731.424q0-29.728 21.728-51.424t51.424-21.728l73.152 0 0-54.848q0-37.728 26.848-64.576t64.576-26.848l36.576 0q37.728 0 64.576 26.848t26.848 64.576l0 54.848 219.424 0 0-54.848q0-37.728 26.848-64.576t64.576-26.848l36.576 0q37.728 0 64.576 26.848t26.848 64.576l0 54.848 73.152 0q29.728 0 51.424 21.728t21.728 51.424z" p-id="1126"></path></svg>