<?xml version="1.0" standalone="no"?><!DOCTYPE svg PUBLIC "-//W3C//DTD SVG 1.1//EN" "http://www.w3.org/Graphics/SVG/1.1/DTD/svg11.dtd"><svg t="1521452172128" class="icon" style="" viewBox="0 0 1024 1024" version="1.1" xmlns="http://www.w3.org/2000/svg" p-id="1899" xmlns:xlink="http://www.w3.org/1999/xlink" width="16" height="16"><defs><style type="text/css"></style></defs><path d="M874.322026 254.904551l-389.17358 506.198877c-3.530406 4.594645-8.861832 7.480368-14.643512 7.930623-0.532119 0.040932-1.054005 0.061398-1.586125 0.061398-5.229095 0-10.284227-2.00568-14.101159-5.64865l-210.013131-199.8824-32.397874 42.149982c-6.897084 8.953929-19.739577 10.642384-28.703739 3.745301-8.964162-6.886851-10.642384-19.739577-3.745301-28.693506l46.263673-60.180638c3.540639-4.594645 8.861832-7.480368 14.643512-7.930623s11.491729 1.586125 15.687284 5.587252l210.013131 199.8824 375.297548-488.168222c6.897084-8.964162 19.739577-10.642384 28.703739-3.755534C879.530654 233.097896 881.208876 245.940388 874.322026 254.904551z" p-id="1900"></path></svg>