<?xml version="1.0" encoding="UTF-8"?>
<svg width="12px" height="12px" viewBox="0 0 12 12" version="1.1" xmlns="http://www.w3.org/2000/svg" xmlns:xlink="http://www.w3.org/1999/xlink">
    <!-- Generator: Sketch 48.2 (47327) - http://www.bohemiancoding.com/sketch -->
    <title>创建用户</title>
    <desc>Created with Sketch.</desc>
    <defs>
        <polygon id="path-1" points="0 1.66533657e-15 0 12 12 12 12 0"></polygon>
    </defs>
    <g id="存储产品色板" stroke="none" stroke-width="1" fill="none" fill-rule="evenodd" transform="translate(-192.000000, -982.000000)">
        <g id="创建用户" transform="translate(192.000000, 982.000000)">
            <mask id="mask-2" fill="white">
                <use xlink:href="#path-1"></use>
            </mask>
            <g id="Clip-2"></g>
            <path d="M9.56601265,12 L2.43302055,12 C1.0919984,12 0,10.9090416 0,9.56697945 L0,2.43302055 C0,1.0919984 1.0919984,0 2.43302055,0 L9.56601265,0 C10.9080016,0 12,1.0919984 12,2.43302055 L12,9.56697945 C12,10.9090416 10.9080016,12 9.56601265,12 Z M2.63621369,1 C1.73371709,1 1,1.73449488 1,2.63682695 L1,9.36317305 C1,10.2655051 1.73371709,11 2.63621369,11 L9.36287458,11 C10.2653712,11 11,10.2655051 11,9.36317305 L11,2.63682695 C11,1.73449488 10.2653712,1 9.36287458,1 L2.63621369,1 Z" id="Fill-1" fill="#404040" mask="url(#mask-2)"></path>
            <path d="M5.5,5.5 L5.5,3.5 C5.5,3.22385763 5.72385763,3 6,3 C6.27614237,3 6.5,3.22385763 6.5,3.5 L6.5,5.5 L8.5,5.5 C8.77614237,5.5 9,5.72385763 9,6 C9,6.27614237 8.77614237,6.5 8.5,6.5 L6.5,6.5 L6.5,8.5 C6.5,8.77614237 6.27614237,9 6,9 C5.72385763,9 5.5,8.77614237 5.5,8.5 L5.5,6.5 L3.5,6.5 C3.22385763,6.5 3,6.27614237 3,6 C3,5.72385763 3.22385763,5.5 3.5,5.5 L5.5,5.5 Z" id="Combined-Shape" fill="#404040" fill-rule="nonzero" mask="url(#mask-2)"></path>
        </g>
    </g>
</svg>