<?xml version="1.0" standalone="no"?><!DOCTYPE svg PUBLIC "-//W3C//DTD SVG 1.1//EN" "http://www.w3.org/Graphics/SVG/1.1/DTD/svg11.dtd"><svg t="1521079541537" class="icon" style="" viewBox="0 0 1024 1024" version="1.1" xmlns="http://www.w3.org/2000/svg" p-id="2313" xmlns:xlink="http://www.w3.org/1999/xlink" width="16" height="16"><defs><style type="text/css"></style></defs><path d="M733.7984 723.2512l-208.896-185.6512 208.896-185.6512c10.5472-9.3696 11.52-25.5488 2.1504-36.1472s-25.5488-11.52-36.1472-2.1504l-213.4016 189.696-213.4016-189.696c-10.5472-9.3696-26.7264-8.448-36.1472 2.1504s-8.448 26.7264 2.1504 36.1472l208.896 185.6512-208.896 185.6512c-10.5472 9.3696-11.52 25.5488-2.1504 36.1472 5.0688 5.6832 12.0832 8.6016 19.1488 8.6016 6.0416 0 12.1344-2.1504 16.9984-6.4512l213.4016-189.696 213.4016 189.696c4.864 4.352 10.9568 6.4512 16.9984 6.4512 7.0656 0 14.08-2.9184 19.1488-8.6016 9.3696-10.5472 8.448-26.7264-2.1504-36.1472z" p-id="2314"></path><path d="M486.4 1024c-129.9456 0-252.0576-50.5856-343.9616-142.4384s-142.4384-214.016-142.4384-343.9104c0-129.9456 50.5856-252.0576 142.4384-343.9616s214.016-142.4896 343.9616-142.4896c129.9456 0 252.0576 50.5856 343.9616 142.4896s142.4384 214.016 142.4384 343.9616-50.5856 252.0576-142.4384 343.9104c-91.8528 91.8528-214.016 142.4384-343.9616 142.4384zM486.4 102.4c-239.9744 0-435.2 195.2256-435.2 435.2s195.2256 435.2 435.2 435.2 435.2-195.2256 435.2-435.2-195.2256-435.2-435.2-435.2z" p-id="2315"></path></svg>