<?xml version="1.0" encoding="UTF-8"?>
<svg width="12px" height="12px" viewBox="0 0 12 12" version="1.1" xmlns="http://www.w3.org/2000/svg" xmlns:xlink="http://www.w3.org/1999/xlink">
    <!-- Generator: Sketch 48.2 (47327) - http://www.bohemiancoding.com/sketch -->
    <title>删除</title>
    <desc>Created with Sketch.</desc>
    <defs></defs>
    <g id="6-1" stroke="none" stroke-width="1" fill="none" fill-rule="evenodd" transform="translate(-428.000000, -147.000000)">
        <g id="Group-22-Copy-3" transform="translate(412.000000, 136.000000)" fill="#FFFFFF">
            <g id="Group-29">
                <path d="M26.5,14 L26.5,22 C26.5,22.5522847 26.0522847,23 25.5,23 L18.5,23 C17.9477153,23 17.5,22.5522847 17.5,22 L17.5,14 L16.5,14 C16.2238576,14 16,13.7761424 16,13.5 C16,13.2238576 16.2238576,13 16.5,13 L27.5,13 C27.7761424,13 28,13.2238576 28,13.5 C28,13.7761424 27.7761424,14 27.5,14 L26.5,14 Z M18.5,14 L18.5,22 L25.5,22 L25.5,14 L18.5,14 Z M19.5,11 L24.5,11 C24.7761424,11 25,11.2238576 25,11.5 C25,11.7761424 24.7761424,12 24.5,12 L19.5,12 C19.2238576,12 19,11.7761424 19,11.5 C19,11.2238576 19.2238576,11 19.5,11 Z M20.5,15 C20.7761424,15 21,15.2238576 21,15.5 L21,20.5 C21,20.7761424 20.7761424,21 20.5,21 C20.2238576,21 20,20.7761424 20,20.5 L20,15.5 C20,15.2238576 20.2238576,15 20.5,15 Z M23.5,15 C23.7761424,15 24,15.2238576 24,15.5 L24,20.5 C24,20.7761424 23.7761424,21 23.5,21 C23.2238576,21 23,20.7761424 23,20.5 L23,15.5 C23,15.2238576 23.2238576,15 23.5,15 Z" id="删除"></path>
            </g>
        </g>
    </g>
</svg>