<?xml version="1.0" encoding="UTF-8"?>
<svg width="12px" height="12px" viewBox="0 0 12 12" version="1.1" xmlns="http://www.w3.org/2000/svg" xmlns:xlink="http://www.w3.org/1999/xlink">
    <!-- Generator: Sketch 48.2 (47327) - http://www.bohemiancoding.com/sketch -->
    <title>Group 3</title>
    <desc>Created with Sketch.</desc>
    <defs></defs>
    <g id="6-1" stroke="none" stroke-width="1" fill="none" fill-rule="evenodd" transform="translate(-350.000000, -146.000000)">
        <g id="Group-22-Copy-3" transform="translate(334.000000, 136.000000)" fill="#FFFFFF">
            <g id="Group-29">
                <g id="Group-2" transform="translate(16.000000, 10.000000)">
                    <g id="Group-3">
                        <path d="M9.56601265,12 L2.43302055,12 C1.0919984,12 0,10.9090416 0,9.56697945 L0,2.43302055 C0,1.0919984 1.0919984,0 2.43302055,0 L9.56601265,0 C10.9080016,0 12,1.0919984 12,2.43302055 L12,9.56697945 C12,10.9090416 10.9080016,12 9.56601265,12 Z M2.63621369,1 C1.73371709,1 1,1.73462881 1,2.63712542 L1,9.36469803 C1,10.2671946 1.73371709,11.0018234 2.63621369,11.0018234 L9.36287458,11.0018234 C10.2653712,11.0018234 11,10.2671946 11,9.36469803 L11,2.63712542 C11,1.73462881 10.2653712,1 9.36287458,1 L2.63621369,1 Z" id="Combined-Shape"></path>
                        <rect id="Rectangle-3" x="5" y="9" width="4" height="1"></rect>
                        <path d="M6.98324328,2.03985279 L7.34381551,2.23791614 C7.49316941,2.31995666 7.54434184,2.50165712 7.45811232,2.64375548 L7.19789173,3.07257521 L6.29646117,2.57741685 L6.55668177,2.14859712 C6.64291128,2.00649876 6.83388938,1.95781227 6.98324328,2.03985279 Z M3.0697259,7.89478138 L3.97115645,8.38993974 L3,9 L3.0697259,7.89478138 Z M6.19237294,2.74894473 L7.0938035,3.24410309 L4.07524459,8.21841201 L3.17381403,7.72325365 L6.19237294,2.74894473 Z" id="Combined-Shape"></path>
                    </g>
                </g>
            </g>
        </g>
    </g>
</svg>