<?xml version="1.0" encoding="UTF-8"?>
<svg width="14px" height="11px" viewBox="0 0 14 11" version="1.1" xmlns="http://www.w3.org/2000/svg" xmlns:xlink="http://www.w3.org/1999/xlink">
    <!-- Generator: Sketch 48.2 (47327) - http://www.bohemiancoding.com/sketch -->
    <title>一级导航邮箱</title>
    <desc>Created with Sketch.</desc>
    <defs></defs>
    <g id="存储产品色板" stroke="none" stroke-width="1" fill="none" fill-rule="evenodd" transform="translate(-245.000000, -906.000000)">
        <path d="M258.973227,914.284153 L258.973227,908.426189 L255.943426,911.483458 L258.973227,914.283253 M253.859602,913.584655 L253.860494,913.583754 L255.493641,911.936286 L258.973227,915.152 L258.973227,915.710159 C258.973227,916.415959 258.403857,916.990322 257.704191,916.990322 L246.281084,916.990322 C245.581418,916.990322 245.012048,916.415959 245.012048,915.709258 L245.012048,915.169105 L248.499665,911.944389 L250.124781,913.584655 C250.623649,914.087898 251.287618,914.365176 251.992637,914.365176 C252.693308,914.366912 253.365558,914.085864 253.859602,913.584655 Z M257.730072,906 C258.428845,906 259,906.574363 259,907.280164 L259,907.54754 L253.438375,913.158834 C253.059984,913.540542 252.555761,913.751202 252.01941,913.751202 C251.483952,913.751202 250.979729,913.540542 250.600446,913.158834 L245.039713,907.54754 L245.039713,907.280164 C245.039713,906.574363 245.608191,906 246.306964,906 L257.730072,906 Z M245.012048,908.426189 L248.04988,911.49156 L245.012048,914.300358 L245.012048,908.426189 Z" id="一级导航邮箱" fill="#6C777A" fill-rule="nonzero"></path>
    </g>
</svg>