<?xml version="1.0" encoding="UTF-8"?>
<svg width="16px" height="16px" viewBox="0 0 16 16" version="1.1" xmlns="http://www.w3.org/2000/svg" xmlns:xlink="http://www.w3.org/1999/xlink">
    <!-- Generator: Sketch 48.2 (47327) - http://www.bohemiancoding.com/sketch -->
    <title>1-1-概览页-顶部导航-帮助</title>
    <desc>Created with Sketch.</desc>
    <defs></defs>
    <g id="Page-1" stroke="none" stroke-width="1" fill="none" fill-rule="evenodd">
        <g id="1-1-概览页-顶部导航-帮助" fill="#000000">
            <path d="M8,16 C3.58125,16 0,12.41875 0,8 C0,3.58125 3.58125,0 8,0 C12.41875,0 16,3.58125 16,8 C16,12.41875 12.41875,16 8,16 L8,16 L8,16 Z M8,6 C7.6546875,6 7.375,6.2796875 7.375,6.625 L7.375,12.390625 C7.375,12.7359375 7.6546875,13.015625 8,13.015625 C8.3453125,13.015625 8.625,12.7359375 8.625,12.390625 L8.625,6.625 C8.625,6.2796875 8.3453125,6 8,6 L8,6 Z M7.296875,4.296875 C7.296875,4.68520021 7.61167479,5 8,5 C8.38832521,5 8.703125,4.68520021 8.703125,4.296875 C8.703125,3.90854979 8.38832521,3.59375 8,3.59375 C7.61167479,3.59375 7.296875,3.90854979 7.296875,4.296875 L7.296875,4.296875 Z" id="Shape"></path>
        </g>
    </g>
</svg>