<?xml version="1.0" encoding="UTF-8"?>
<svg width="16px" height="16px" viewBox="0 0 16 16" version="1.1" xmlns="http://www.w3.org/2000/svg" xmlns:xlink="http://www.w3.org/1999/xlink">
    <!-- Generator: Sketch 48.2 (47327) - http://www.bohemiancoding.com/sketch -->
    <title>0-1登陆页-显示密码</title>
    <desc>Created with Sketch.</desc>
    <defs></defs>
    <g id="Page-1" stroke="none" stroke-width="1" fill="none" fill-rule="evenodd">
        <g id="0-1登陆页-显示密码" fill="#ABB3BA">
            <path d="M8,12.6875 C3.581722,12.6875 1.74504254,10.3913012 0,7.84375 C1.7104517,5.02213822 3.581722,3 8,3 C12.418278,3 14.2508347,5.26393123 16,7.84375 C14.590403,10.528761 12.418278,12.6875 8,12.6875 Z M8,11.3333333 C9.7673112,11.3333333 11.2,9.84094917 11.2,8 C11.2,6.15905083 9.7673112,4.66666667 8,4.66666667 C6.2326888,4.66666667 4.8,6.15905083 4.8,8 C4.8,9.84094917 6.2326888,11.3333333 8,11.3333333 Z M8,9.66666667 C7.1163444,9.66666667 6.4,8.92047458 6.4,8 C6.4,7.07952542 7.1163444,6.33333333 8,6.33333333 C8.8836556,6.33333333 9.6,7.07952542 9.6,8 C9.6,8.92047458 8.8836556,9.66666667 8,9.66666667 Z" id="eye"></path>
        </g>
    </g>
</svg>