<?xml version="1.0" standalone="no"?><!DOCTYPE svg PUBLIC "-//W3C//DTD SVG 1.1//EN" "http://www.w3.org/Graphics/SVG/1.1/DTD/svg11.dtd"><svg t="1523870614005" class="icon" style="" viewBox="0 0 1024 1024" version="1.1" xmlns="http://www.w3.org/2000/svg" p-id="1377" xmlns:xlink="http://www.w3.org/1999/xlink" width="16" height="16"><defs><style type="text/css"></style></defs><path d="M512 1024C228.266667 1024 0 795.733333 0 512S228.266667 0 512 0s512 228.266667 512 512S795.733333 1024 512 1024zM512 85.333333C277.333333 85.333333 85.333333 277.333333 85.333333 512s192 426.666667 426.666667 426.666667 426.666667-192 426.666667-426.666667S746.666667 85.333333 512 85.333333zM512 853.333333c-36.266667 0-64-27.733333-64-64L448 448c0-36.266667 27.733333-64 64-64s64 27.733333 64 64l0 341.333333C576 825.6 548.266667 853.333333 512 853.333333zM512 298.666667c-36.266667 0-64-27.733333-64-64s27.733333-64 64-64 64 27.733333 64 64S548.266667 298.666667 512 298.666667z" p-id="1378"></path></svg>