<?xml version="1.0" encoding="UTF-8"?>
<svg width="14px" height="13px" viewBox="0 0 14 13" version="1.1" xmlns="http://www.w3.org/2000/svg" xmlns:xlink="http://www.w3.org/1999/xlink">
    <!-- Generator: Sketch 48.2 (47327) - http://www.bohemiancoding.com/sketch -->
    <title>顶部导航收缩折叠右</title>
    <desc>Created with Sketch.</desc>
    <defs></defs>
    <g id="存储产品色板" stroke="none" stroke-width="1" fill="none" fill-rule="evenodd" transform="translate(-171.000000, -341.000000)">
        <path d="M171.559938,352.873533 L184.440062,352.873533 C184.749583,352.873533 185,353.125424 185,353.436767 C185,353.74811 184.749583,354 184.440062,354 L171.559938,354 C171.250417,354 171,353.74811 171,353.436767 C171,353.125424 171.250417,352.873533 171.559938,352.873533 Z M171.559938,349 L180.349406,349 C180.658927,349 180.909343,348.74811 180.909343,348.436767 C180.909343,348.125424 180.658927,347.873533 180.349406,347.873533 L171.559938,347.873533 C171.250417,347.873533 171,348.125424 171,348.436767 C171,348.74811 171.251972,349 171.559938,349 Z M184.440062,343 L171.606599,343 C171.297078,343 171.046661,342.74811 171.046661,342.436767 C171.046661,342.125424 171.297078,341.873533 171.606599,341.873533 L184.440062,341.873533 C184.749583,341.873533 185,342.125424 185,342.436767 C185,342.74811 184.748028,343 184.440062,343 Z M182.95249,346.034681 C182.843614,345.926728 182.702074,345.873533 182.560534,345.873533 C182.415883,345.873533 182.271233,345.929857 182.160801,346.042503 C181.944602,346.264668 181.946158,346.621382 182.167022,346.838853 L183.650857,348.306389 L182.193464,349.687875 C181.967933,349.900652 181.957046,350.257366 182.170133,350.484224 C182.381665,350.711082 182.736292,350.720469 182.961823,350.507692 L184.84228,348.72412 C184.952713,348.619296 185.016483,348.473794 185.018039,348.320469 C185.019594,348.167145 184.958934,348.020078 184.850057,347.912125 L182.95249,346.034681 Z" id="顶部导航收缩折叠右" fill="#000000" transform="translate(178.009034, 347.936767) scale(1, -1) translate(-178.009034, -347.936767) "></path>
    </g>
</svg>