<?xml version="1.0" encoding="UTF-8"?>
<svg width="12px" height="12px" viewBox="0 0 12 12" version="1.1" xmlns="http://www.w3.org/2000/svg" xmlns:xlink="http://www.w3.org/1999/xlink">
    <!-- Generator: Sketch 48.2 (47327) - http://www.bohemiancoding.com/sketch -->
    <title>更多操作</title>
    <desc>Created with Sketch.</desc>
    <defs></defs>
    <g id="存储产品色板" stroke="none" stroke-width="1" fill="none" fill-rule="evenodd" transform="translate(-454.000000, -982.000000)">
        <g id="Group-20-Copy" transform="translate(438.000000, 972.000000)" fill="#404040">
            <g id="更多操作" transform="translate(16.000000, 10.000000)">
                <path d="M9.56601265,12 L2.43302055,12 C1.0919984,12 0,10.9090416 0,9.56697945 L0,2.43302055 C0,1.0919984 1.0919984,0 2.43302055,0 L9.56601265,0 C10.9080016,0 12,1.0919984 12,2.43302055 L12,9.56697945 C12,10.9090416 10.9080016,12 9.56601265,12 Z M2.63621369,1 C1.73371709,1 1,1.73462881 1,2.63712542 L1,9.36469803 C1,10.2671946 1.73371709,11.0018234 2.63621369,11.0018234 L9.36287458,11.0018234 C10.2653712,11.0018234 11,10.2671946 11,9.36469803 L11,2.63712542 C11,1.73462881 10.2653712,1 9.36287458,1 L2.63621369,1 Z" id="Fill-1"></path>
                <path d="M3.69999999,6.39999998 C3.31340067,6.39999998 3,6.08659931 3,5.69999999 C3,5.31340067 3.31340067,5 3.69999999,5 C4.08659931,5 4.39999998,5.31340067 4.39999998,5.69999999 C4.39999998,6.08659931 4.08659931,6.39999998 3.69999999,6.39999998 Z M6.26666661,6.39999998 C5.88006729,6.39999998 5.56666662,6.08659931 5.56666662,5.69999999 C5.56666662,5.31340067 5.88006729,5 6.26666661,5 C6.65326593,5 6.9666666,5.31340067 6.9666666,5.69999999 C6.9666666,6.08659931 6.65326593,6.39999998 6.26666661,6.39999998 Z M8.83333323,6.39999998 C8.44673392,6.39999998 8.13333325,6.08659931 8.13333325,5.69999999 C8.13333325,5.31340067 8.44673392,5 8.83333323,5 C9.21993255,5 9.53333322,5.31340067 9.53333322,5.69999999 C9.53333322,6.08659931 9.21993255,6.39999998 8.83333323,6.39999998 Z" id="Combined-Shape"></path>
            </g>
        </g>
    </g>
</svg>