<?xml version="1.0" standalone="no"?><!DOCTYPE svg PUBLIC "-//W3C//DTD SVG 1.1//EN" "http://www.w3.org/Graphics/SVG/1.1/DTD/svg11.dtd"><svg t="1521708545235" class="icon" style="" viewBox="0 0 1024 1024" version="1.1" xmlns="http://www.w3.org/2000/svg" p-id="1897" xmlns:xlink="http://www.w3.org/1999/xlink" width="16" height="16"><defs><style type="text/css"></style></defs><path d="M185.89696 532.2752l286.72 0 0 286.72c0 11.32544 9.17504 20.48 20.48 20.48s20.48-9.15456 20.48-20.48l0-286.72 286.72 0c11.30496 0 20.48-9.15456 20.48-20.48s-9.17504-20.48-20.48-20.48l-286.72 0 0-286.72c0-11.32544-9.17504-20.48-20.48-20.48s-20.48 9.15456-20.48 20.48l0 286.72-286.72 0c-11.30496 0-20.48 9.15456-20.48 20.48S174.592 532.2752 185.89696 532.2752z" p-id="1898"></path></svg>