<?xml version="1.0" encoding="UTF-8"?>
<svg width="14px" height="14px" viewBox="0 0 14 14" version="1.1" xmlns="http://www.w3.org/2000/svg" xmlns:xlink="http://www.w3.org/1999/xlink">
    <!-- Generator: Sketch 48.2 (47327) - http://www.bohemiancoding.com/sketch -->
    <title>Shape</title>
    <desc>Created with Sketch.</desc>
    <defs></defs>
    <g id="存储产品色板" stroke="none" stroke-width="1" fill="none" fill-rule="evenodd" transform="translate(-173.000000, -558.000000)">
        <path d="M180,572 C176.133594,572 173,568.866406 173,565 C173,561.133594 176.133594,558 180,558 C183.866406,558 187,561.133594 187,565 C187,568.866406 183.866406,572 180,572 L180,572 Z M182.334545,559.471818 C181.595455,559.158182 180.81,559 180,559 C179.19,559 178.404545,559.158182 177.665455,559.470455 C176.950909,559.773182 176.31,560.205455 175.757727,560.756364 C175.206818,561.307273 174.773182,561.949545 174.471818,562.664091 C174.158182,563.404545 174,564.19 174,565 C174,565.81 174.158182,566.595455 174.470455,567.334545 C174.773182,568.049091 175.205455,568.69 175.756364,569.242273 C176.307273,569.793182 176.949545,570.226818 177.664091,570.528182 C178.404545,570.841818 179.19,571 180,571 C180.81,571 181.595455,570.841818 182.334545,570.529545 C183.049091,570.226818 183.69,569.794545 184.242273,569.243636 C184.793182,568.692727 185.226818,568.050455 185.528182,567.335909 C185.841818,566.595455 186,565.81 186,565 C186,564.19 185.841818,563.404545 185.529545,562.665455 C185.226818,561.950909 184.794545,561.308636 184.242273,560.757727 C183.691364,560.206818 183.049091,559.773182 182.334545,559.471818 Z M179.428802,563 C179.4121,563 179.395397,563.001326 179.378695,563.002652 C179.103106,563.027845 178.902678,563.262541 178.929123,563.525082 C178.997324,564.186739 179.506746,564.721104 180.067667,565.255468 C180.965419,566.110716 180.98073,566.382539 180.99604,566.670273 C181.014135,567.005743 180.884691,567.330604 180.628588,567.586516 C180.337689,567.878228 179.925697,568.0453 179.498395,568.0453 L179.495611,568.0453 C178.67302,568.043974 178.002142,567.404858 178.002142,566.619887 C178.002142,566.356019 177.778052,566.142539 177.501071,566.142539 C177.22409,566.142539 177,566.356019 177,566.619887 C177,567.255024 177.258887,567.851709 177.729337,568.301211 C178.199786,568.750714 178.826125,568.998669 179.492828,568.999995 C180.195719,569.001321 180.874948,568.72552 181.355141,568.244195 C181.801929,567.796018 182.030195,567.219223 181.99679,566.619887 C181.961994,566.005964 181.764349,565.521987 180.776126,564.580551 C180.275055,564.103204 179.959102,563.745193 179.927089,563.430939 C179.902036,563.184309 179.683513,563 179.428802,563 L179.428802,563 Z M179.25,561.933013 C179.404701,562.022329 179.595299,562.022329 179.75,561.933013 C179.904701,561.843696 180,561.678633 180,561.5 C180,561.223858 179.776142,561 179.5,561 C179.223858,561 179,561.223858 179,561.5 C179,561.678633 179.095299,561.843696 179.25,561.933013 Z" id="Shape" fill="#000000" transform="translate(180.000000, 565.000000) scale(1, -1) translate(-180.000000, -565.000000) "></path>
    </g>
</svg>