<?xml version="1.0" encoding="UTF-8"?>
<svg width="16px" height="16px" viewBox="0 0 16 16" version="1.1" xmlns="http://www.w3.org/2000/svg" xmlns:xlink="http://www.w3.org/1999/xlink">
    <!-- Generator: Sketch 48.2 (47327) - http://www.bohemiancoding.com/sketch -->
    <title>刷新</title>
    <desc>Created with Sketch.</desc>
    <defs></defs>
    <g id="Page-1" stroke="none" stroke-width="1" fill="none" fill-rule="evenodd">
        <g id="刷新" fill="#323232">
            <path d="M15.1735146,10.7471667 L11.9732627,11.3240887 C11.5269987,11.4050333 11.3342578,11.9380975 11.6284531,12.2839274 L12.2352935,12.9991732 C9.46972318,15.3303651 5.33479526,14.986192 2.99691606,12.229903 C2.0486485,11.1115299 1.54631699,9.77047217 1.46359957,8.41429745 L1.45533808,8.41429745 C1.45533808,8.37882666 1.45533808,8.34165802 1.45021309,8.30626905 C1.39088614,7.9082557 1.01899601,7.63655845 0.620209904,7.69729246 C0.222858795,7.75810829 -0.0510824346,8.12744227 0.00801900718,8.52551699 C0.00984350539,8.53400625 0.0131440021,8.54071584 0.0131440021,8.54750724 C0.123167394,10.1905371 0.73503029,11.814952 1.88302916,13.1695312 C4.74326834,16.5397472 9.79772286,16.959894 13.177001,14.1090775 L13.729701,14.7602345 C14.0237527,15.1059827 14.5816596,15.0047457 14.7355735,14.5779507 L15.8343109,11.5248239 C15.9883068,11.0980289 15.6213981,10.6661403 15.1735146,10.7471667 Z M0.799256727,5.2227446 L3.99918057,4.64582263 C4.44569063,4.56479622 4.63820594,4.03183431 4.34415423,3.68598388 L3.7664033,3.00422466 L3.7660753,3.00447013 L3.44496362,2.62490813 L3.7664033,3.00414283 C6.53029258,0.670005298 10.668398,1.01239866 13.0077942,3.77036508 C13.9697762,4.90385524 14.4717797,6.27023753 14.5428122,7.6467251 L14.5512172,7.6467251 C14.5528982,7.66861307 14.5512172,7.69226027 14.5547432,7.71423007 C14.6156076,8.11056603 14.9875797,8.38385885 15.3847668,8.32320666 C15.7465505,8.26926406 16.0016727,7.95546826 15.9999917,7.6012513 C15.9999917,7.59437807 15.9981467,7.58607291 15.9981467,7.57928151 C15.9967117,7.55058167 15.9981467,7.52357968 15.9934317,7.4949003 C15.9915868,7.48819072 15.9898238,7.48313807 15.9883068,7.47634666 C15.8818094,5.82492978 15.273124,4.19036869 14.1184011,2.83075736 C11.2598634,-0.541299676 6.2019649,-0.959523609 2.82434723,1.8928884 L2.2429063,1.20977908 C1.94871109,0.863846824 1.39080414,0.965104269 1.2370543,1.39196066 L0.138378379,4.44510787 C-0.0155354696,4.87020504 0.351229669,5.30362782 0.799256727,5.2227446 Z"></path>
        </g>
    </g>
</svg>