<?xml version="1.0" encoding="UTF-8"?>
<svg width="16px" height="16px" viewBox="0 0 16 16" version="1.1" xmlns="http://www.w3.org/2000/svg" xmlns:xlink="http://www.w3.org/1999/xlink">
    <!-- Generator: Sketch 48.2 (47327) - http://www.bohemiancoding.com/sketch -->
    <title>搜索</title>
    <desc>Created with Sketch.</desc>
    <defs></defs>
    <g id="Page-1" stroke="none" stroke-width="1" fill="none" fill-rule="evenodd">
        <g id="搜索" fill="#999999" fill-rule="nonzero">
            <path d="M6.89817966,13.7967779 C3.09446673,13.7967779 0,10.7021901 0,6.89829909 C0,3.09460577 3.09446673,0 6.89817966,0 C10.7019106,0 13.7965534,3.09460577 13.7965534,6.89829909 C13.7965534,10.7019924 10.7019106,13.7967779 6.89817966,13.7967779 M6.89817966,1.69788635 C4.03070391,1.69788635 1.6979107,4.03088502 1.6979107,6.89829909 C1.6979107,9.7658929 4.0307075,12.0987118 6.89817966,12.0987118 C9.76565181,12.0987118 12.0985492,9.7658929 12.0985492,6.89829909 C12.0985492,4.03088502 9.76565541,1.69788635 6.89817966,1.69788635 M14.9551053,16 C14.6876167,16 14.4202287,15.8981133 14.2161805,15.6941422 L10.6122133,12.0901209 C10.2042176,11.6821967 10.2042176,11.0205209 10.6122133,10.612399 C11.0204247,10.2044748 11.681963,10.2044748 12.0900666,10.612399 L15.6939223,14.216219 C16.1020259,14.6243589 16.1020259,15.2860203 15.6939223,15.6941386 C15.4898705,15.8981097 15.2225796,16 14.9551053,16" id="Shape"></path>
        </g>
    </g>
</svg>