<?xml version="1.0" encoding="UTF-8"?>
<svg width="14px" height="14px" viewBox="0 0 14 14" version="1.1" xmlns="http://www.w3.org/2000/svg" xmlns:xlink="http://www.w3.org/1999/xlink">
    <!-- Generator: Sketch 48.2 (47327) - http://www.bohemiancoding.com/sketch -->
    <title>设置</title>
    <desc>Created with Sketch.</desc>
    <defs></defs>
    <g id="存储产品色板" stroke="none" stroke-width="1" fill="none" fill-rule="evenodd" transform="translate(-485.000000, -313.000000)">
        <g id="顶部导航icon" transform="translate(171.000000, 312.000000)" fill="#000000">
            <g id="设置" transform="translate(314.000000, 1.000000)">
                <path d="M13.9994551,7.01184742 L13.9994551,7.00273402 C13.9994551,6.75667231 13.9830538,6.50696524 13.9520734,6.23903138 L13.3069541,6.02395521 L12.7365519,5.8307512 L12.5597819,5.25660721 C12.4595515,4.92487957 12.3265184,4.60226533 12.1643274,4.2960552 L11.8836822,3.76565551 L12.4559067,2.62283557 C12.2882486,2.41140477 12.1224128,2.22366879 11.9492876,2.05051426 L11.9456428,2.0468689 C11.7761623,1.87553704 11.5884581,1.70967322 11.377063,1.5438094 L10.2380811,2.11430803 L9.70959343,1.83908345 C9.39796797,1.67686499 9.06994116,1.54198672 8.73644725,1.43627132 L8.16604508,1.25764874 L7.98016322,0.692618149 L7.76512343,0.0473896628 C7.49905724,0.0145814347 7.24757002,0 7.00154992,0 C6.75735219,0 6.50586497,0.016404114 6.23797641,0.0473896628 L6.02293662,0.692618149 L5.83523239,1.26311678 L5.26118548,1.43991668 C4.92222445,1.5438094 4.59966476,1.67686499 4.30079589,1.83543809 L3.76866352,2.11248535 L3.23106403,1.84455149 L2.62421444,1.54198672 C2.41281939,1.70967322 2.22511516,1.87553704 2.0519899,2.04869158 C1.8752199,2.22549147 1.70938413,2.41322744 1.54537073,2.62101289 L2.11395052,3.76018748 L1.83695011,4.28876448 C1.67111434,4.60591069 1.53625887,4.93034761 1.43785083,5.25478453 L1.26108083,5.82892852 L0.0473816496,6.23174066 C0.0145789691,6.49785184 0,6.74938159 0,6.9954433 C0,7.24150501 0.0164013403,7.49121208 0.0473816496,7.75914594 L1.25743609,8.16195808 L1.43420609,8.73427939 C1.53625887,9.06418435 1.67111434,9.39044395 1.83330537,9.7039448 L2.11030578,10.2325218 L1.84423959,10.7665669 L1.54172598,11.3735191 C1.86064093,11.7708632 2.22329279,12.1335764 2.6205697,12.4525452 L3.76137403,11.8820466 L4.29168403,12.1609165 C4.59784239,12.3213123 4.92404682,12.4561906 5.26118548,12.561906 L5.83158765,12.7405286 L6.02111425,13.3073819 L6.23615404,13.9526103 C6.51133208,13.9835959 6.76099693,14 6.99790518,14 C7.24210291,14 7.49359013,13.9835959 7.75965631,13.9526103 L8.16422271,12.7441739 L8.73462487,12.567374 C9.06629642,12.4634813 9.39250086,12.328603 9.70412632,12.1682073 L10.232614,11.89116 L11.3715959,12.4616586 C11.7688728,12.1426898 12.1333471,11.7799766 12.4559067,11.3808098 L11.8873269,10.2416352 L12.1606826,9.71488087 C12.3228736,9.40138003 12.4595515,9.07329775 12.5634266,8.73974743 L12.742019,8.1692488 L13.3087764,7.97969014 L13.9538958,7.76461398 C13.9885209,7.49121208 14.0030998,7.24515037 13.9994551,7.01184742 L13.9994551,7.01184742 Z M6.99972755,10.1741961 C5.24842888,10.1741961 3.82333465,8.74886083 3.82333465,6.99726598 C3.82333465,5.24567114 5.24842888,3.82033589 6.99972755,3.82033589 C8.75102621,3.82033589 10.1761204,5.24567114 10.1761204,6.99726598 C10.1761204,8.74886083 8.75102621,10.1741961 6.99972755,10.1741961 L6.99972755,10.1741961 Z M8.31730188,5.67946882 C7.96558425,5.32769171 7.49723487,5.13266502 6.99972755,5.13266502 C6.50222023,5.13266502 6.03387084,5.32586903 5.68215321,5.67946882 C5.33043558,6.03124593 5.13544187,6.49967452 5.13544187,6.99726598 C5.13544187,7.49485744 5.32861321,7.96328603 5.68215321,8.31506314 C6.03387084,8.66684026 6.50222023,8.86186694 6.99972755,8.86186694 C7.49723487,8.86186694 7.96558425,8.66866293 8.31730188,8.31506314 C8.66901951,7.96146335 8.86401322,7.49485744 8.86401322,6.99726598 C8.86401322,6.49967452 8.66901951,6.03124593 8.31730188,5.67946882 L8.31730188,5.67946882 Z" transform="translate(7.000000, 7.000000) scale(1, -1) translate(-7.000000, -7.000000) "></path>
            </g>
        </g>
    </g>
</svg>